HIERARCHY
ROOT Hips
{
	OFFSET 15.585500 22.159004 44.358299
	CHANNELS 6 Xposition Yposition Zposition Zrotation Xrotation Yrotation
	JOINT Chest
	{
		OFFSET -0.128500 0.160400 6.566002
		CHANNELS 6 Xposition Yposition Zposition Zrotation Xrotation Yrotation
		JOINT Chest2
		{
			OFFSET 0.000000 0.000000 3.554802
			CHANNELS 6 Xposition Yposition Zposition Zrotation Xrotation Yrotation
			JOINT Neck
			{
				OFFSET 0.000000 0.000000 8.267998
				CHANNELS 6 Xposition Yposition Zposition Zrotation Xrotation Yrotation
				JOINT Head
				{
					OFFSET 0.000000 0.000002 2.173897
					CHANNELS 6 Xposition Yposition Zposition Zrotation Xrotation Yrotation
					End Site
					{
						OFFSET 0.000000 0.000000 7.718697
					}
				}
			}
			JOINT LeftCollar
			{
				OFFSET 2.057500 0.117599 5.946301
				CHANNELS 6 Xposition Yposition Zposition Zrotation Xrotation Yrotation
				JOINT LeftShoulder
				{
					OFFSET 4.957699 0.000000 0.000000
					CHANNELS 6 Xposition Yposition Zposition Zrotation Xrotation Yrotation
					JOINT LeftElbow
					{
						OFFSET 0.000000 0.000000 -8.465500
						CHANNELS 6 Xposition Yposition Zposition Zrotation Xrotation Yrotation
						JOINT LeftWrist
						{
							OFFSET 0.000000 -0.000002 -14.594898
							CHANNELS 6 Xposition Yposition Zposition Zrotation Xrotation Yrotation
							End Site
							{
								OFFSET 0.000000 0.000000 -2.173901
							}
						}
					}
				}
			}
			JOINT RightCollar
			{
				OFFSET -3.048500 -0.728800 6.604099
				CHANNELS 6 Xposition Yposition Zposition Zrotation Xrotation Yrotation
				JOINT RightShoulder
				{
					OFFSET -3.710299 0.000000 0.000000
					CHANNELS 6 Xposition Yposition Zposition Zrotation Xrotation Yrotation
					JOINT RightElbow
					{
						OFFSET 0.000000 0.000000 -10.450901
						CHANNELS 6 Xposition Yposition Zposition Zrotation Xrotation Yrotation
						JOINT RightWrist
						{
							OFFSET 0.000000 0.000000 -12.539200
							CHANNELS 6 Xposition Yposition Zposition Zrotation Xrotation Yrotation
							End Site
							{
								OFFSET 0.000000 -0.000002 -2.173901
							}
						}
					}
				}
			}
		}
	}
	JOINT LeftHip
	{
		OFFSET 2.442599 -0.601400 -2.767502
		CHANNELS 6 Xposition Yposition Zposition Zrotation Xrotation Yrotation
		JOINT LeftKnee
		{
			OFFSET 0.000000 -0.000002 -17.033703
			CHANNELS 6 Xposition Yposition Zposition Zrotation Xrotation Yrotation
			JOINT LeftAnkle
			{
				OFFSET 0.000000 -0.000002 -19.318800
				CHANNELS 6 Xposition Yposition Zposition Zrotation Xrotation Yrotation
				End Site
				{
					OFFSET 0.000000 -8.281900 0.000000
				}
			}
		}
	}
	JOINT RightHip
	{
		OFFSET -3.126200 -0.601400 -2.283501
		CHANNELS 6 Xposition Yposition Zposition Zrotation Xrotation Yrotation
		JOINT RightKnee
		{
			OFFSET 0.000000 -0.000002 -16.919401
			CHANNELS 6 Xposition Yposition Zposition Zrotation Xrotation Yrotation
			JOINT RightAnkle
			{
				OFFSET 0.000000 -0.000002 -18.035900
				CHANNELS 6 Xposition Yposition Zposition Zrotation Xrotation Yrotation
				End Site
				{
					OFFSET 0.000000 -9.230099 0.000000
				}
			}
		}
	}
}
MOTION
Frames: 4
Frame Time: 0.041667
23.536900 38.875206 9.057899 4.283412 1.845431 -3.077495 -0.128497 0.160392 6.565997 -3.901785 1.647371 1.510532 -0.000002 -0.000002 3.554804 0.933043 -10.686313 -1.048354 0.000003 0.000000 8.268002 -0.169725 9.328581 4.930247 -0.000002 -0.000003 2.173890 2.734504 -2.649334 0.262001 2.057507 0.117604 5.946308 -21.745135 5.873468 -0.850954 4.957699 0.000005 -0.000004 -7.653111 -1.690023 -164.857079 -0.000003 0.000006 -8.465492 -100.851056 -164.972974 -164.650589 -0.000001 0.000002 -14.594900 -134.157346 -155.456157 -174.099145 -3.048500 -0.728801 6.604098 20.354068 0.429017 13.418214 -3.710298 0.000000 -0.000005 41.154871 -5.735885 152.442746 -0.000007 0.000001 -10.450904 -47.289358 -16.695011 -7.988341 0.000000 0.000000 -12.539190 303.479867 -6.752704 -13.790081 2.442594 -0.601403 -2.767505 135.245477 0.701922 92.785026 -0.000001 -0.000005 -17.033707 -137.725601 26.741562 127.626989 0.000002 0.000000 -19.318802 142.523235 119.578471 263.145715 -3.126193 -0.601408 -2.283504 -135.184716 -24.885982 -98.817941 0.000000 -0.000003 -16.919395 165.787980 37.129960 -178.134352 -0.000003 0.000000 -18.035892 -29.886627 34.665891 -208.164836
23.532803 38.890503 9.057903 4.318916 1.770829 -3.100235 -0.128500 0.160398 6.566007 -3.934157 1.614045 1.506851 -0.000001 -0.000002 3.554807 0.953799 -10.672229 -1.041949 0.000002 0.000007 8.268001 -0.163598 9.440307 5.006238 0.000000 -0.000010 2.173896 2.784408 -2.606255 0.245728 2.057503 0.117605 5.946305 -21.746325 5.940952 -0.868983 4.957700 -0.000000 -0.000004 -7.757124 -1.781593 -164.855495 -0.000002 0.000000 -8.465499 -101.011190 -165.066425 -164.710094 -0.000001 0.000001 -14.594896 -133.998544 -155.424219 -173.719346 -3.048501 -0.728799 6.604103 20.278652 0.539053 13.530304 -3.710293 0.000002 -0.000009 41.223405 -5.866134 152.480408 0.000004 0.000002 -10.450888 -47.334099 -16.586650 -7.969108 -0.000000 -0.000002 -12.539196 303.557485 -6.688097 -13.939666 2.442591 -0.601402 -2.767501 135.188923 0.728688 92.755690 -0.000004 -0.000006 -17.033701 -137.844747 26.832321 127.639693 -0.000002 0.000000 -19.318804 142.360499 119.493900 262.961245 -3.126198 -0.601405 -2.283499 -135.178077 -24.946421 -98.789500 0.000002 0.000000 -16.919401 165.801312 37.207080 -178.147535 -0.000002 -0.000001 -18.035896 -29.960621 34.720324 -208.158430
23.528799 38.905701 9.057606 4.355143 1.699207 -3.123840 -0.128498 0.160404 6.566001 -3.967665 1.583669 1.505071 -0.000000 -0.000004 3.554810 0.975938 -10.660675 -1.035738 -0.000002 -0.000004 8.268000 -0.161630 9.542409 5.076031 -0.000001 0.000004 2.173898 3.190010 -2.685125 -0.373449 2.057502 0.117599 5.946304 -21.754591 6.006810 -0.877943 4.957695 0.000004 -0.000010 -7.833004 -1.865885 -164.861806 0.000001 0.000006 -8.465503 -101.138368 -165.159083 -164.764353 0.000004 -0.000003 -14.594900 -133.844264 -155.400860 -173.339601 -3.048502 -0.728797 6.604101 20.206988 0.635252 13.618468 -3.710295 -0.000002 -0.000007 41.278197 -5.970203 152.525255 -0.000001 0.000002 -10.450897 -47.393843 -16.484113 -7.954335 -0.000002 0.000004 -12.539199 303.662807 -6.619528 -14.088314 2.442595 -0.601398 -2.767504 135.130894 0.753687 92.729305 -0.000002 -0.000009 -17.033710 -137.961652 26.926484 127.653572 0.000002 -0.000003 -19.318804 142.194566 119.407225 262.771311 -3.126196 -0.601398 -2.283502 -135.175331 -24.993493 -98.766106 0.000003 -0.000002 -16.919392 165.816598 37.276956 -178.151264 -0.000003 -0.000004 -18.035900 -30.030525 34.770475 -208.155151
23.524899 38.920601 9.057003 4.390318 1.629712 -3.147378 -0.128499 0.160394 6.565997 -4.000425 1.557297 1.505210 -0.000001 -0.000001 3.554806 0.999195 -10.651545 -1.029572 0.000002 0.000008 8.267999 -0.163677 9.634258 5.138371 -0.000002 0.000005 2.173897 3.257643 -2.515857 -0.457253 2.057507 0.117609 5.946301 -21.769935 6.071342 -0.879084 4.957700 0.000004 0.000004 -7.823812 -1.795964 -164.950079 -0.000008 0.000007 -8.465494 -101.168687 -165.350137 -164.927786 0.000001 0.000000 -14.594896 -133.695421 -155.387377 -172.963394 -3.048497 -0.728798 6.604096 20.139989 0.716216 13.681301 -3.710297 0.000000 0.000001 41.314916 -6.045976 152.576235 -0.000002 0.000002 -10.450900 -47.469668 -16.389288 -7.944181 0.000000 0.000000 -12.539189 303.742692 -6.545943 -14.249419 2.442593 -0.601403 -2.767504 135.073042 0.775170 92.704532 -0.000002 -0.000003 -17.033710 -138.074173 27.022305 127.667915 -0.000000 0.000000 -19.318800 142.028497 119.319689 262.578508 -3.126200 -0.601408 -2.283502 -135.174553 -25.027483 -98.746128 0.000002 -0.000004 -16.919403 165.831911 37.337103 -178.142822 -0.000001 -0.000002 -18.035896 -30.091898 34.814075 -208.156340
